<?xml version="1.0" encoding="UTF-8"?> <svg xmlns="http://www.w3.org/2000/svg" width="332" height="24" viewBox="0 0 332 24" fill="none"><path fill-rule="evenodd" clip-rule="evenodd" d="M304.532 4.1312L321.393 0.124995C323.852 -0.461584 326.348 1.0735 326.934 3.53214L330.941 20.3932C331.24 21.6786 330.978 22.9766 330.292 24H304.532L301.125 9.6725C300.538 7.21386 302.074 4.71778 304.532 4.1312Z" fill="#F47421"></path><path d="M304.495 11.0204V18.2216H306.13V15.2138H308.813V18.2216H310.435V11.0204H308.813V13.791H306.13V11.0204H304.495Z" fill="white"></path><path d="M324.501 16.1374C324.526 16.025 324.551 15.7754 324.551 15.5009C324.551 14.2029 323.914 12.8925 322.217 12.8925C320.395 12.8925 319.583 14.3527 319.583 15.6756C319.583 17.3105 320.594 18.3339 322.367 18.3339C323.078 18.3339 323.727 18.2216 324.264 18.0094L324.051 16.9111C323.615 17.0484 323.165 17.1233 322.604 17.1233C321.842 17.1233 321.181 16.7988 321.131 16.1249H324.501V16.1374ZM321.131 15.0266C321.169 14.5898 321.456 13.9658 322.129 13.9658C322.878 13.9658 323.053 14.6272 323.053 15.0266H321.131Z" fill="white"></path><path d="M325.075 18.2216H326.697V15.5757C326.697 15.4509 326.71 15.3136 326.735 15.2138C326.847 14.7146 327.246 14.3901 327.845 14.3901C328.033 14.3901 328.17 14.415 328.282 14.4275V12.9049C328.17 12.8799 328.095 12.8799 327.945 12.8799C327.446 12.8799 326.797 13.2044 326.535 13.9533H326.498L326.448 12.9923H325.05C325.075 13.4416 325.087 13.9408 325.087 14.7146V18.2216H325.075Z" fill="white"></path><path fill-rule="evenodd" clip-rule="evenodd" d="M312.095 10.7333C312.557 10.7333 312.931 11.1078 312.931 11.5695C312.931 12.0313 312.557 12.4057 312.095 12.4057C311.633 12.4057 311.259 12.0313 311.259 11.5695C311.259 11.1078 311.633 10.7333 312.095 10.7333Z" fill="#FFE800"></path><path fill-rule="evenodd" clip-rule="evenodd" d="M315.527 17.011H316.339C317.162 17.011 317.524 16.4868 317.524 15.9376C317.524 15.3885 317.487 14.1529 316.476 14.1529C315.315 14.1529 315.502 15.688 315.502 16.4868C315.502 16.6615 315.515 16.8362 315.527 17.011ZM311.259 12.9923H312.931V15.9376C312.931 16.4868 313.231 17.011 313.905 17.011C313.905 15.688 313.905 14.3152 313.855 12.9923H315.253C315.278 13.2419 315.315 13.504 315.34 13.7536C316.002 12.4306 318.073 12.7302 318.772 13.8409C319.496 14.9891 319.746 18.284 316.339 18.284H315.552C315.565 18.9579 315.565 19.6194 315.565 20.2933H313.892C313.892 19.6568 313.892 18.9829 313.905 18.284C312.095 18.2715 311.272 17.1358 311.272 15.9376V12.9923H311.259Z" fill="white"></path><path fill-rule="evenodd" clip-rule="evenodd" d="M245.138 0C243.234 0 239.425 0 239.425 0C236.904 0.119026 234.837 1.13616 234.242 3.23535C233.928 4.32822 233.755 5.52931 233.517 6.66546C232.283 12.4328 231.19 18.3517 230 24H274.472C277.913 24 280.272 23.275 280.911 20.5482C281.203 19.2822 281.495 17.8431 281.776 16.4472C282.88 11.0153 283.984 5.58341 285.12 0H245.138Z" fill="#981B1E"></path><path fill-rule="evenodd" clip-rule="evenodd" d="M244.694 8.52659C244.932 8.36428 245.246 7.61766 244.889 7.30387C244.781 7.20648 244.586 7.17402 244.326 7.2173C244.088 7.26058 243.948 7.33633 243.85 7.46617C243.699 7.67176 243.558 8.29936 243.796 8.52659C244.034 8.75382 244.543 8.6348 244.694 8.52659ZM241.297 7.30387C241.124 8.41838 240.929 9.50044 240.734 10.5933C239.49 10.6041 238.224 10.6582 237.023 10.5609C237.25 9.50044 237.412 8.36428 237.639 7.30387H236.298C235.821 10.0198 235.378 12.7791 234.848 15.4409H236.211C236.427 14.0775 236.622 12.6925 236.904 11.4049C238.072 11.3724 239.468 11.3291 240.582 11.4373C240.355 12.7899 240.074 14.0884 239.858 15.4517H241.221C241.665 12.6925 242.119 9.96572 242.671 7.31469H241.297V7.30387ZM260.611 9.64111C259.551 9.20828 258.718 9.93326 258.328 10.615C258.415 10.312 258.447 9.9549 258.523 9.64111H257.463C257.203 11.6537 256.824 13.5365 256.456 15.4409H257.657C257.83 14.3156 257.895 12.7899 258.274 11.7078C258.577 10.8422 259.356 10.1064 260.471 10.5068C260.481 10.193 260.579 9.94408 260.611 9.64111ZM261.282 14.0775C261.174 13.7962 261.142 13.3201 261.174 12.963C261.239 12.1623 261.531 11.1776 261.986 10.734C262.613 10.1172 263.847 10.2254 264.831 10.5717C264.864 10.2362 264.929 9.94408 264.972 9.61946C263.36 9.35977 261.823 9.52208 261.012 10.3769C260.222 11.2101 259.692 13.1253 260.059 14.3372C260.492 15.7439 262.418 15.8305 263.987 15.2894C264.052 15.0081 264.096 14.6943 264.15 14.4022C263.295 14.8242 261.661 15.0514 261.282 14.0775ZM274.732 9.67357C273.672 9.14336 272.795 10.0306 272.449 10.5609C272.546 10.2903 272.557 9.92244 272.644 9.64111H271.583C271.302 11.6321 270.956 13.5581 270.555 15.4409H271.778C271.789 14.6727 271.94 14.0992 272.059 13.3526C272.319 11.7403 272.687 9.97654 274.57 10.5068C274.635 10.2362 274.656 9.92244 274.732 9.67357ZM243.472 9.64111C243.439 9.64111 243.439 9.68439 243.439 9.72767C243.179 11.697 242.822 13.5798 242.433 15.4409H243.634C243.926 13.4499 244.251 11.5022 244.662 9.64111H243.472ZM254 9.5329C253.134 9.59782 252.399 9.8467 251.879 10.3985C251.241 11.0694 250.721 12.5518 250.873 13.9152C251.089 15.8413 253.491 15.7764 255.417 15.3111C255.45 14.9756 255.537 14.6835 255.58 14.3589C254.79 14.651 253.416 15.073 252.593 14.5536C251.977 14.1641 251.977 13.1794 252.171 12.3246C253.459 12.2813 254.812 12.2921 256.099 12.3246C256.186 11.7187 256.413 11.0586 256.207 10.4526C255.959 9.66275 254.995 9.45716 254 9.5329ZM255.147 11.6537H252.334C252.42 11.0045 253.004 10.2903 253.924 10.2579C254.779 10.2254 255.407 10.5717 255.147 11.6537ZM249.466 9.64111C248.449 9.26239 247.215 9.71685 246.685 10.1497C246.685 10.1713 246.674 10.1713 246.653 10.1713C246.664 10.1605 246.674 10.1605 246.685 10.1497C246.696 9.96572 246.761 9.83588 246.772 9.65193H245.744C245.311 12.5086 244.803 15.2894 244.272 18.0379H245.452C245.625 16.9666 245.744 15.8413 245.982 14.835C246.252 15.8954 248.038 15.6898 248.795 15.2786C250.353 14.4346 251.544 10.431 249.466 9.64111ZM248.514 14.348C247.876 15.0297 246.296 15.0189 246.177 13.8719C246.123 13.3742 246.307 12.8548 246.404 12.3354C246.501 11.816 246.566 11.3183 246.653 10.853C247.28 10.0848 249.142 9.98737 249.326 11.275C249.488 12.4003 249.044 13.7854 248.514 14.348ZM279.201 7.13074C279.104 8.02884 278.963 8.89449 278.779 9.72767C275.836 8.7971 274.04 10.9612 274.072 13.6339C274.083 14.1533 274.17 14.6618 274.494 15.0297C275.046 15.6573 276.647 15.8088 277.448 15.2786C277.6 15.1812 277.762 14.9865 277.87 14.8566C277.946 14.7592 278.076 14.4995 278.097 14.5753C278.054 14.8566 277.989 15.1163 277.989 15.4409H279.071C279.277 12.4328 279.926 9.86834 280.413 7.14156H279.201V7.13074ZM276.518 14.8025C275.706 14.8242 275.306 14.3156 275.295 13.4932C275.262 12.0433 275.901 10.431 277.188 10.2903C277.794 10.2254 278.227 10.3661 278.671 10.5176C278.26 12.1298 278.411 14.7592 276.518 14.8025ZM266.184 9.64111C266.13 9.97654 266.032 10.2687 265.957 10.5933C266.66 10.4202 268.867 9.86834 269.073 10.8205C269.149 11.1343 269.019 11.4698 268.932 11.7078C266.941 11.5239 265.318 11.8485 264.896 13.266C264.615 14.2182 264.929 15.1488 265.535 15.4085C266.703 15.9062 268.132 15.3327 268.629 14.5428C268.575 14.8133 268.532 15.0947 268.543 15.4301H269.571C269.582 14.4454 269.722 13.6447 269.874 12.7574C270.004 12 270.242 11.2534 270.209 10.5825C270.133 9.0568 267.601 9.59782 266.184 9.64111ZM268.132 14.3264C267.515 14.9324 265.784 15.1055 265.957 13.6555C266.108 12.4545 267.407 12.2056 268.824 12.3787C268.727 13.0279 268.608 13.8611 268.132 14.3264Z" fill="white"></path><path d="M161.764 5.30025C162.469 5.06517 163.221 4.93979 164.002 4.93979C167.418 4.93979 170.27 7.36581 170.922 10.5911L175.765 9.60376C174.655 4.12485 169.81 0 164.002 0C162.669 0 161.394 0.216273 160.196 0.617474L161.764 5.30025Z" fill="#FFCB05"></path><path d="M156.05 20.991L159.325 17.2893C157.864 15.9948 156.943 14.1048 156.943 11.9985C156.943 9.89528 157.864 8.00525 159.325 6.71388L156.05 3.00903C153.567 5.20937 152 8.42212 152 11.9985C152 15.5779 153.567 18.7907 156.05 20.991Z" fill="#00A4E0"></path><path d="M170.922 13.4152C170.267 16.6373 167.418 19.0602 164.005 19.0602C163.221 19.0602 162.466 18.9348 161.764 18.6966L160.196 23.3856C161.394 23.7837 162.673 24 164.005 24C169.806 24 174.649 19.8814 175.765 14.4088L170.922 13.4152Z" fill="#EF4123"></path><path d="M179.999 17.4429C179.84 17.1858 179.626 16.7752 179.495 16.4712C178.727 14.6909 178.692 12.8479 179.338 11.0801C180.05 9.13987 181.41 7.65731 183.168 6.89879C185.378 5.94907 187.82 6.134 189.939 7.39089C191.283 8.16195 192.236 9.35301 192.96 11.0393C193.051 11.2556 193.133 11.4844 193.214 11.6819L179.999 17.4429ZM184.413 9.76048C182.842 10.4344 182.034 11.9075 182.203 13.6314L188.848 10.7698C187.704 9.42824 186.218 8.98315 184.413 9.76048ZM189.675 15.9854C189.672 15.9854 189.672 15.9885 189.672 15.9885L189.534 15.8945C189.136 16.537 188.519 17.0605 187.738 17.399C186.253 18.0447 184.877 17.8785 183.886 17.0103L183.795 17.1482C183.795 17.1482 183.795 17.1451 183.792 17.1451L182.106 19.6683C182.526 19.9598 182.974 20.2043 183.444 20.4017C185.306 21.1759 187.212 21.1383 189.089 20.3234C190.446 19.7341 191.512 18.8377 192.239 17.6999L189.675 15.9854Z" fill="black"></path><path d="M197.831 3.18768V17.2109L200.013 18.0948L198.774 20.9847L196.367 19.9817C195.828 19.7466 195.458 19.3893 195.182 18.985C194.916 18.5744 194.719 18.0071 194.719 17.2485V3.18768H197.831Z" fill="black"></path><path d="M203.479 13.6408C203.479 12.4466 204.009 11.3747 204.842 10.6475L202.604 8.15253C201.087 9.49404 200.131 11.453 200.131 13.6346C200.128 15.8192 201.084 17.7814 202.598 19.1229L204.833 16.6279C204.002 15.8976 203.479 14.8319 203.479 13.6408Z" fill="black"></path><path d="M207.453 17.6184C207.015 17.6184 206.588 17.5432 206.193 17.4115L205.124 20.5867C205.855 20.8312 206.635 20.9659 207.45 20.9659C210.992 20.9691 213.948 18.4553 214.634 15.1172L211.349 14.4464C210.976 16.2612 209.375 17.6215 207.453 17.6184Z" fill="black"></path><path d="M207.463 6.3158C206.651 6.3158 205.87 6.44744 205.14 6.68879L206.2 9.86706C206.598 9.73541 207.021 9.66332 207.46 9.66332C209.384 9.66646 210.989 11.033 211.353 12.851L214.637 12.1865C213.963 8.84211 211.008 6.31893 207.463 6.3158Z" fill="black"></path><path d="M136 12.9889V0H112V24H136V16.9978C135.947 16.9978 136 12.9889 136 12.9889Z" fill="#006FCF"></path><path d="M133.06 11.6526H134.878V7.42987H132.9V8.01784L132.526 7.42987H130.815V8.1782L130.494 7.42987H127.341C127.234 7.42987 127.127 7.48332 127.02 7.48332C126.913 7.48332 126.86 7.53677 126.753 7.59023C126.646 7.64368 126.592 7.64368 126.486 7.69713V7.42987H117.452L117.185 8.12475L116.918 7.42987H114.78V8.1782L114.459 7.42987H112.748L112 9.24724V11.6526H113.229L113.443 11.0646H113.871L114.085 11.6526H123.492V11.1181L123.866 11.6526H126.486V11.3319C126.539 11.3853 126.646 11.3853 126.699 11.4388C126.753 11.4922 126.86 11.4922 126.913 11.5457C127.02 11.5991 127.127 11.5991 127.234 11.5991H129.158L129.372 11.0112H129.8L130.013 11.5991H132.633V11.0646L133.06 11.6526ZM136 16.9978V13.0423H121.301L120.927 13.5769L120.552 13.0423H116.276V17.2651H120.552L120.927 16.7305L121.301 17.2651H123.973V16.3564H123.866C124.241 16.3564 124.561 16.3029 124.829 16.196V17.3185H126.753V16.784L127.127 17.3185H135.091C135.412 17.2116 135.733 17.1582 136 16.9978Z" fill="white"></path><path d="M135.091 15.9822H133.648V16.5701H135.038C135.626 16.5701 136 16.196 136 15.6614C136 15.1269 135.679 14.8597 135.145 14.8597H134.503C134.343 14.8597 134.236 14.7528 134.236 14.5924C134.236 14.432 134.343 14.3251 134.503 14.3251H135.733L136 13.7372H134.557C133.969 13.7372 133.595 14.1113 133.595 14.5924C133.595 15.1269 133.915 15.3942 134.45 15.3942H135.091C135.252 15.3942 135.359 15.5011 135.359 15.6614C135.412 15.8753 135.305 15.9822 135.091 15.9822ZM132.472 15.9822H131.029V16.5701H132.419C133.007 16.5701 133.381 16.196 133.381 15.6614C133.381 15.1269 133.06 14.8597 132.526 14.8597H131.884C131.724 14.8597 131.617 14.7528 131.617 14.5924C131.617 14.432 131.724 14.3251 131.884 14.3251H133.114L133.381 13.7372H131.938C131.35 13.7372 130.976 14.1113 130.976 14.5924C130.976 15.1269 131.296 15.3942 131.831 15.3942H132.472C132.633 15.3942 132.739 15.5011 132.739 15.6614C132.793 15.8753 132.633 15.9822 132.472 15.9822ZM130.601 14.2717V13.6837H128.356V16.5167H130.601V15.9287H128.998V15.3407H130.548V14.7528H128.998V14.2182H130.601V14.2717ZM126.967 14.2717C127.234 14.2717 127.341 14.432 127.341 14.5924C127.341 14.7528 127.234 14.9131 126.967 14.9131H126.165V14.2182L126.967 14.2717ZM126.165 15.5011H126.486L127.341 16.5167H128.143L127.18 15.4476C127.661 15.3407 127.929 15.02 127.929 14.5924C127.929 14.0579 127.555 13.6837 126.967 13.6837H125.47V16.5167H126.111L126.165 15.5011ZM124.454 14.6459C124.454 14.8597 124.347 15.02 124.08 15.02H123.225V14.2717H124.027C124.294 14.2717 124.454 14.432 124.454 14.6459ZM122.584 13.6837V16.5167H123.225V15.5545H124.08C124.668 15.5545 125.096 15.1804 125.096 14.5924C125.096 14.0579 124.722 13.6303 124.134 13.6303L122.584 13.6837ZM121.621 16.5167H122.423L121.301 15.0735L122.423 13.6837H121.621L120.927 14.5924L120.232 13.6837H119.43L120.552 15.0735L119.43 16.4632H120.232L120.927 15.5545L121.621 16.5167ZM119.216 14.2717V13.6837H116.971V16.5167H119.216V15.9287H117.612V15.3407H119.163V14.7528H117.612V14.2182H119.216V14.2717ZM132.205 9.24719L133.327 10.9577H134.129V8.12469H133.488V9.99552L133.327 9.72826L132.312 8.12469H131.457V10.9577H132.098V9.03338L132.205 9.24719ZM129.425 9.19374L129.639 8.60576L129.853 9.19374L130.12 9.83516H129.158L129.425 9.19374ZM130.548 10.9577H131.243L130.013 8.12469H129.158L127.929 10.9577H128.624L128.891 10.3697H130.281L130.548 10.9577ZM127.555 10.9577L127.822 10.3697H127.661C127.18 10.3697 126.913 10.049 126.913 9.5679V9.51445C126.913 9.03338 127.18 8.71267 127.661 8.71267H128.356V8.12469H127.608C126.753 8.12469 126.272 8.71267 126.272 9.51445V9.5679C126.272 10.4231 126.753 10.9577 127.555 10.9577ZM125.149 10.9577H125.791V8.17815H125.149V10.9577ZM123.759 8.71267C124.027 8.71267 124.134 8.87302 124.134 9.03338C124.134 9.19374 124.027 9.35409 123.759 9.35409H122.958V8.65922L123.759 8.71267ZM122.958 9.94207H123.278L124.134 10.9577H124.935L123.973 9.88861C124.454 9.78171 124.722 9.461 124.722 9.03338C124.722 8.49886 124.347 8.12469 123.759 8.12469H122.263V10.9577H122.904L122.958 9.94207ZM121.782 8.71267V8.12469H119.537V10.9577H121.782V10.3697H120.178V9.78171H121.728V9.19374H120.178V8.65922H121.782V8.71267ZM116.918 10.9577H117.506L118.307 8.65922V10.9577H118.949V8.12469H117.88L117.238 10.049L116.597 8.12469H115.528V10.9577H116.169V8.65922L116.918 10.9577ZM113.443 9.19374L113.657 8.60576L113.871 9.19374L114.138 9.83516H113.176L113.443 9.19374ZM114.566 10.9577H115.261L114.031 8.12469H113.229L112 10.9577H112.695L112.962 10.3697H114.352L114.566 10.9577Z" fill="#006FCF"></path><path d="M70.6283 23.9469V22.354C70.6283 21.7434 70.2566 21.3452 69.6195 21.3452C69.3009 21.3452 68.9558 21.4513 68.7168 21.7965C68.531 21.5044 68.2655 21.3452 67.8673 21.3452C67.6018 21.3452 67.3363 21.4248 67.1239 21.7168V21.3983H66.5664V23.9469H67.1239V22.5398C67.1239 22.0885 67.3628 21.8761 67.7345 21.8761C68.1062 21.8761 68.292 22.1151 68.292 22.5398V23.9469H68.8496V22.5398C68.8496 22.0885 69.115 21.8761 69.4602 21.8761C69.8319 21.8761 70.0177 22.1151 70.0177 22.5398V23.9469H70.6283ZM78.885 21.3983H77.9823V20.6283H77.4248V21.3983H76.9204V21.9027H77.4248V23.0708C77.4248 23.6549 77.6637 24 78.3009 24C78.5398 24 78.8053 23.9204 78.9912 23.8142L78.8319 23.3363C78.6726 23.4425 78.4867 23.469 78.354 23.469C78.0885 23.469 77.9823 23.3098 77.9823 23.0443V21.9027H78.885V21.3983ZM83.6106 21.3452C83.292 21.3452 83.0796 21.5044 82.9469 21.7168V21.3983H82.3894V23.9469H82.9469V22.5133C82.9469 22.0885 83.1327 21.8496 83.4779 21.8496C83.5841 21.8496 83.7168 21.8761 83.823 21.9027L83.9823 21.3717C83.8761 21.3452 83.7168 21.3452 83.6106 21.3452ZM76.469 21.6106C76.2035 21.4248 75.8319 21.3452 75.4336 21.3452C74.7965 21.3452 74.3717 21.6637 74.3717 22.1682C74.3717 22.5929 74.6903 22.8319 75.2478 22.9115L75.5133 22.9381C75.8053 22.9912 75.9646 23.0708 75.9646 23.2036C75.9646 23.3894 75.7522 23.5221 75.3805 23.5221C75.0089 23.5221 74.7168 23.3894 74.531 23.2567L74.2655 23.6814C74.5575 23.8938 74.9558 24 75.354 24C76.0974 24 76.5221 23.6549 76.5221 23.177C76.5221 22.7257 76.177 22.4867 75.646 22.4071L75.3805 22.3806C75.1416 22.354 74.9558 22.3009 74.9558 22.1416C74.9558 21.9558 75.1416 21.8496 75.4336 21.8496C75.7522 21.8496 76.0708 21.9823 76.2301 22.062L76.469 21.6106ZM91.2832 21.3452C90.9646 21.3452 90.7522 21.5044 90.6195 21.7168V21.3983H90.062V23.9469H90.6195V22.5133C90.6195 22.0885 90.8053 21.8496 91.1505 21.8496C91.2566 21.8496 91.3894 21.8761 91.4956 21.9027L91.6549 21.3717C91.5487 21.3452 91.3894 21.3452 91.2832 21.3452ZM84.1681 22.6726C84.1681 23.4425 84.6991 24 85.5221 24C85.8938 24 86.1593 23.9204 86.4248 23.708L86.1593 23.2567C85.9469 23.416 85.7345 23.4956 85.4956 23.4956C85.0443 23.4956 84.7257 23.177 84.7257 22.6726C84.7257 22.1947 85.0443 21.8761 85.4956 21.8496C85.7345 21.8496 85.9469 21.9292 86.1593 22.0885L86.4248 21.6372C86.1593 21.4248 85.8938 21.3452 85.5221 21.3452C84.6991 21.3452 84.1681 21.9027 84.1681 22.6726ZM89.3186 22.6726V21.3983H88.7611V21.7168C88.5752 21.4779 88.3097 21.3452 87.9646 21.3452C87.2478 21.3452 86.6903 21.9027 86.6903 22.6726C86.6903 23.4425 87.2478 24 87.9646 24C88.3363 24 88.6018 23.8673 88.7611 23.6283V23.9469H89.3186V22.6726ZM87.2743 22.6726C87.2743 22.2213 87.5664 21.8496 88.0443 21.8496C88.4956 21.8496 88.8142 22.1947 88.8142 22.6726C88.8142 23.1239 88.4956 23.4956 88.0443 23.4956C87.5664 23.469 87.2743 23.1239 87.2743 22.6726ZM80.6106 21.3452C79.8673 21.3452 79.3363 21.8761 79.3363 22.6726C79.3363 23.469 79.8673 24 80.6372 24C81.0089 24 81.3805 23.8938 81.6726 23.6549L81.4071 23.2567C81.1947 23.416 80.9292 23.5221 80.6637 23.5221C80.3186 23.5221 79.9735 23.3629 79.8938 22.9115H81.7788C81.7788 22.8319 81.7788 22.7788 81.7788 22.6991C81.8053 21.8761 81.3274 21.3452 80.6106 21.3452ZM80.6106 21.823C80.9558 21.823 81.1947 22.0354 81.2478 22.4336H79.9204C79.9735 22.0885 80.2124 21.823 80.6106 21.823ZM94.4425 22.6726V20.3894H93.885V21.7168C93.6991 21.4779 93.4336 21.3452 93.0885 21.3452C92.3717 21.3452 91.8142 21.9027 91.8142 22.6726C91.8142 23.4425 92.3717 24 93.0885 24C93.4602 24 93.7257 23.8673 93.885 23.6283V23.9469H94.4425V22.6726ZM92.3982 22.6726C92.3982 22.2213 92.6903 21.8496 93.1681 21.8496C93.6195 21.8496 93.9381 22.1947 93.9381 22.6726C93.9381 23.1239 93.6195 23.4956 93.1681 23.4956C92.6903 23.469 92.3982 23.1239 92.3982 22.6726ZM73.7611 22.6726V21.3983H73.2035V21.7168C73.0177 21.4779 72.7522 21.3452 72.4071 21.3452C71.6903 21.3452 71.1327 21.9027 71.1327 22.6726C71.1327 23.4425 71.6903 24 72.4071 24C72.7788 24 73.0443 23.8673 73.2035 23.6283V23.9469H73.7611V22.6726ZM71.6903 22.6726C71.6903 22.2213 71.9823 21.8496 72.4602 21.8496C72.9115 21.8496 73.2301 22.1947 73.2301 22.6726C73.2301 23.1239 72.9115 23.4956 72.4602 23.4956C71.9823 23.469 71.6903 23.1239 71.6903 22.6726Z" fill="black"></path><path d="M84.646 2.04425H76.2832V17.0708H84.646V2.04425Z" fill="#FF5F00"></path><path d="M76.8142 9.55752C76.8142 6.50443 78.2478 3.79646 80.4513 2.04425C78.8319 0.769915 76.7876 0 74.5575 0C69.2743 0 65 4.27434 65 9.55752C65 14.8407 69.2743 19.115 74.5575 19.115C76.7876 19.115 78.8319 18.3451 80.4513 17.0708C78.2478 15.3451 76.8142 12.6106 76.8142 9.55752Z" fill="#EB001B"></path><path d="M95.9292 9.55752C95.9292 14.8407 91.6549 19.115 86.3717 19.115C84.1416 19.115 82.0973 18.3451 80.4779 17.0708C82.708 15.3186 84.115 12.6106 84.115 9.55752C84.115 6.50443 82.6814 3.79646 80.4779 2.04425C82.0973 0.769915 84.1416 0 86.3717 0C91.6549 0 95.9292 4.30089 95.9292 9.55752Z" fill="#F79E1B"></path><path d="M14.582 4.28743L10.424 14.8072L8.73773 5.85868C8.54611 4.86228 7.76048 4.28743 6.8982 4.28743H0.0958084L0 4.72814C1.3988 5.03473 2.98922 5.51377 3.94731 6.0503C4.54132 6.37605 4.69461 6.64431 4.90539 7.41078L8.08623 19.7509H12.321L18.7976 4.28743H14.582ZM20.503 4.28743L17.188 19.7509H21.1928L24.5078 4.28743H20.503ZM43.4204 8.46467L44.6276 14.2707H41.3126L43.4204 8.46467ZM42.8455 4.28743C42.0791 4.28743 41.4276 4.72814 41.1401 5.41796L35.1425 19.7509H39.3389L40.182 17.4323H45.3174L45.7964 19.7509H49.4946L46.2755 4.28743H42.8455ZM25.5808 9.11617C25.5617 11.3389 27.5737 12.5844 29.0874 13.3317C30.6395 14.0982 31.1761 14.5772 31.1569 15.2479C31.1377 16.2826 29.9114 16.7425 28.7617 16.7617C26.7497 16.8 25.5808 16.2251 24.6611 15.7844L23.9329 19.1761C24.8719 19.5976 26.5964 19.9808 28.3785 20C32.5749 20 35.3341 17.9305 35.3341 14.7114C35.3533 10.6299 29.7006 10.4 29.7389 8.57964C29.7581 8.02395 30.2755 7.42994 31.4443 7.27665C32.0192 7.2 33.5904 7.14251 35.3916 7.96647L36.1006 4.68982C35.1425 4.34491 33.897 4 32.3641 4C28.3976 4 25.6 6.10778 25.5808 9.11617Z" fill="url(#paint0_linear)"></path><defs><linearGradient id="paint0_linear" x1="2.51011" y1="20.0383" x2="49.4562" y2="20.0383" gradientUnits="userSpaceOnUse"><stop stop-color="#261F5D"></stop><stop offset="1" stop-color="#034EA1"></stop></linearGradient></defs></svg> 